<?xml version="1.0" encoding="utf-8"?>
<!-- Generator: Adobe Illustrator 26.0.1, SVG Export Plug-In . SVG Version: 6.00 Build 0)  -->
<svg version="1.1" id="Layer_1" xmlns="http://www.w3.org/2000/svg" xmlns:xlink="http://www.w3.org/1999/xlink" x="0px" y="0px"
	 viewBox="0 0 841.9 595.3" style="enable-background:new 0 0 841.9 595.3;" xml:space="preserve">
<style type="text/css">
	.st0{fill:none;stroke:#fff;stroke-width:5;stroke-linecap:round;stroke-linejoin:round;stroke-miterlimit:10;}
</style>
<path class="st0" d="M670.5,232.5c0,0-9-3-9,7"/>
<path class="st0" d="M374.5,280.5c0,0-5,0-4,9"/>
<path class="st0" d="M709.5,267.5c0,0,39-23,56-46s8-30-10-5s-34,57-34,57s32-28,34-20s-19.7,20-22.4,20"/>
<path class="st0" d="M284.5,212.5c0,0,10-27-8-27s-44,77-99,158s-124,42-110-34s111.4-96.7,99.2-38.4
	c-12.2,58.4-86.2,107.4-127.2,97.4s-8.6-78.7,55.7-97.4c64.3-18.6,130.3,6.4,146.3-5.6s1,0,1,0l-46,82c0,0,37-36,32-28s-15,29-6,23
	s23-18,23-18s16-19,11-3c0,0,6-12-5-2s-16,20-11,18s16-11,16-11s-4,10,2,9s35-29,45-40s24-38,24-38s-45,72-45,73s34-27,32-25
	s-16,26-5,20s34-31,34-31s-18,22-12,22s9-1,9-1s-11,11-1,7s26-19,26-19s-17,19-7,16s45-38,36-21c0,0,5-8-1-5s-24,25-16,22
	s17-11,17-11s-6.1,10.9,2,6.9s28.1-26.4,28.1-26.4s-7.1,10-3.6,8.7c3.6-1.2,8.6-2.2,8.6-2.2s-23,24-8,23s68-41,62-69s-41-40-41-40
	s50-8,113-27s102-36,102-36s-49,71-50,72s22-30,4-30s-28,21-55,73s-43,123-89,125s-16.7-85.7,50.2-111.4
	c66.8-25.6,89.8-21.6,107.8-20.6c0,0,10-3,1,9c0,0,7-13-5-4s-31,34-21,28s20-13,20-13s-9,11-1,9s35-25,35-25s-40,55-33,53
	s66-51,59-55s-26,23-13,22s53-21,45-27s-38,34-24,61s142,14,102,4s-255,17-462,49s-226,42-193,36s502-77,489-41"/>
</svg>
